# xmcd
#
# Track frame offsets: 
#        150
#        13023
#        36441
#        49159
#        60147
#        78674
#        103172
#        112814
#        125864
#        139349
#        151279
#        161296
#        170533
#        185603
#        198876
#        211471
#        221668
#        233573
#        248093
#        259735
#        269868
#        282928
#        295906
#        306979
#        317116
#        329191
#        338726
#        351250
#
# Disc length: 4813 seconds
#
# Revision: 1
# Processed by: cddbd v1.5.2PL0 Copyright (c) Steve Scherf et al.
# Submitted via: ExactAudioCopy v0.99pb4
#
DISCID=b612cb1c
DTITLE=J. J. Cale - Music History
DYEAR=2001
DGENRE=Blues
TTITLE0=City Girl
TTITLE1=Sensitive Kid
TTITLE2=Lou-Easy-Ann
TTITLE3=Passion
TTITLE4=Artifical Paradise
TTITLE5=Cloudy Day
TTITLE6=If You're Ever In Oklahoma
TTITLE7=I'd Like To Love You Baby
TTITLE8=Lies
TTITLE9=Crying
TTITLE10=Everloving Woman
TTITLE11=Hold On
TTITLE12=You Got Me On So Bad
TTITLE13=The Woman That Got Away
TTITLE14=Low Rider
TTITLE15=Don't Cry Sister
TTITLE16=A Thing Going On
TTITLE17=Don't Wait
TTITLE18=New Orlean
TTITLE19=Cajun Moon
TTITLE20=Fate Of A Fool
TTITLE21=Cocaine
TTITLE22=Downtown L.A.
TTITLE23=Love Has Been Gone
TTITLE24=Ridin' Home
TTITLE25=Mississippi River
TTITLE26=Boilin' Pot
TTITLE27=Changes
EXTD=
EXTT0=
EXTT1=
EXTT2=
EXTT3=
EXTT4=
EXTT5=
EXTT6=
EXTT7=
EXTT8=
EXTT9=
EXTT10=
EXTT11=
EXTT12=
EXTT13=
EXTT14=
EXTT15=
EXTT16=
EXTT17=
EXTT18=
EXTT19=
EXTT20=
EXTT21=
EXTT22=
EXTT23=
EXTT24=
EXTT25=
EXTT26=
EXTT27=
PLAYORDER=
